<?xml version="1.0" encoding="UTF-8"?>
<svg id="Ebene_1" data-name="Ebene 1" xmlns="http://www.w3.org/2000/svg" viewBox="0 0 338.93 81.23">
  <defs>
    <style>
      .cls-1 {
        fill: #a70000;
      }
    </style>
  </defs>
  <path class="cls-1" d="M117.17,77.86v2.56s-27.22.51-27.22.51l.04-2c9.54.79,7.87-23.25,7.17-29.46-.66-5.89-2.26-6.78-8.24-5.35-2.17-2.1,14.17-9.3,15.15-10.73l.77,9.71,10.27-5.9c.19-44.7,55.85-23.42,82.67-31.43l-3.16,15.26-2.49.08c5.61-11.52-12.36-11.82-18.73-10.2-2.16.55-2.8,2.98-3.5,4.7-3.39,8.33-6.96,27.66-8.86,37.19-.69,3.45-4.17,19.55-3.73,21.64.91,4.34,11.64,3.26,14.8,2.68,1.01-.19,7.48-3.56,3.85.77-4.69,5.6-35.92.97-43.93,3.04,1.22-3.99,8.48-1.96,12.51-4.16,1.76-.96,3.03-3.11,3.81-4.9,1.79-4.12,13.51-54.18,13.43-57.74-.17-7.12-20.69-3.07-25.64-1.45-11.73,3.83-18.39,13.61-12.23,25.48,1.15,2.22,4.59,2.69,2.72,5.44-4.61,6.78-9-.82-10.01-1.24-3.37-1.4-10.57,1.89-11.79,5.11-1.1,2.91-1.32,30.41,1.78,30.41h10.53Z"/>
  <path class="cls-1" d="M8.3,36.44c.51-.51.67-11.58,1.27-14.33C11.84,11.75,20.01,3.04,30.49.5c3.29-.8,16.95-1.44,14.91,4.59-2.23,6.62-11.1-.56-16.73-.3-13.28.62-12.26,22.38-12.66,31.65h15.92v3.58h-15.92l.41,36.61c1.22,2.4,6.75.43,9.04,1.67l.3,2.1H.08c-.81-3.75,4.44-1.46,6.61-4.41,1.57-2.13,2.46-32.48,1.53-34.63-.8-1.86-5.93-1.28-7.63-1.35v-3.58h7.71Z"/>
  <path class="cls-1" d="M256.34,32.35v2.04c-1.52,0-5.22-.47-4.87,2.09l10.78,14.25c1.13,0,8.3-10.65,8.46-12.56.49-5.89-7.64-1.55-6.66-5.83h20.8l.54,2.07c-10.08,1.26-15.38,12.07-21.2,19.15,6.38,6.59,12.24,19.27,19.67,24.24,1.62,1.08,4.44-.36,3.81,3.11h-22.6c-1.08-3.5,3.76-1.75,5.15-3.3,2.98-3.32-9.15-14.75-10.3-18.17-3.94,5.14-20.58,18.86-4.61,19.43l-.86,2.08-21.22-.05.04-2c11.35-1.12,17.36-13.95,24.09-21.76.03-1.4-15.41-20.73-17.61-21.84-2.49-1.25-6.33-.02-6.01-2.97h22.6Z"/>
  <path class="cls-1" d="M56.47,35.58c35.04-3.13,33.93,50-1.98,45.12-27.07-3.68-25.67-42.65,1.98-45.12ZM53.36,38.61c-18,3.34-11.39,41.85,7.95,39.62,20.88-2.4,15.16-43.9-7.95-39.62Z"/>
  <path class="cls-1" d="M226.04,32.35l-1.3,10.25-1.78-.02c.65-5.27-1.6-6.92-6.48-7.61-3.79-.54-15.09-1.23-15.09,3.77v15.59h13.61c5.98,0,3.43-5.37,7.44-5.11l-.51,14.83h-1.53c-.39-10.09-12.67-7-19.49-6.62l.81,18.78c7.88,3.38,22.48,2.73,25.33-7.21l1.55-.36c.73,1.21-1.72,10.8-3.08,11.51l-38.51.76c-.39-3.24,3.7-1.25,5.37-3.6,1.78-2.51,1.97-39.82.33-42.07-1.11-1.53-5.41,0-4.67-2.89h38Z"/>
  <path class="cls-1" d="M298.19,35.93c-4.14.71-4.52,3.19-7.19,5.63-2.35.05,2.55-9.25,2.6-10.27l44.61.05.72,1.16-2.75,9.05-1.28-.25c.89-2.85-.99-5.37-3.85-5.37h-11.3c-.78,6.34-2.68,37.72.52,41.4,2.1,2.41,7.47-.04,6.41,3.59-6.2-1.8-18.82,1.16-23.9.05-1-.22-.86-.78-1.26-1.57,1.75-.18,7.16-.57,8.22-1.79,2.3-2.64.71-35.91.51-41.68-3.65.44-8.59-.59-12.07,0Z"/>
</svg>